<svg viewBox="0 0 13 16">

	<path d="M11.8,9.1c0,1.6,0,3.3,0,4.9c0,0.4,0,0.7-0.2,1C11.3,15.7,10.7,16,10,16c-2.3,0-4.6,0-6.9,0c-1,0-1.9-0.7-1.9-1.9
		c0-3,0-5.9,0-8.9c0-0.5,0-0.9,0-1.4c0-0.2,0.1-0.3,0.3-0.3c3.4,0,6.8,0,10.2,0c0.2,0,0.2,0.1,0.2,0.2C11.8,5.6,11.8,7.3,11.8,9.1z"
		/>
	<path d="M12.7,0.9c0,0.6,0,1.2,0,1.8c-0.1,0-0.2,0-0.3,0c-3.9,0-7.9,0-11.8,0c-0.2,0-0.3-0.1-0.3-0.3c0-0.4,0-0.8,0-1.1
		c0-0.2,0.1-0.3,0.3-0.3c0.9,0,1.7,0,2.6,0c0.1,0,0.3-0.1,0.4-0.2C4,0.1,4.6,0,5.3,0c1.1,0.1,2.1,0,3.2,0c0.1,0,0.2,0.1,0.4,0.1
		c0,0,0,0,0.1,0.1c0.4,0.6,1,0.8,1.7,0.7C11.3,0.9,12,0.9,12.7,0.9z"/>
</svg>
