<?xml version="1.0" encoding="utf-8"?>
<!-- Generator: Adobe Illustrator 21.0.0, SVG Export Plug-In . SVG Version: 6.00 Build 0)  -->
<svg version="1.1" id="Layer_1" xmlns="http://www.w3.org/2000/svg" xmlns:xlink="http://www.w3.org/1999/xlink" x="0px" y="0px"
	 viewBox="0 0 100 100" style="enable-background:new 0 0 100 100;" xml:space="preserve">
<style type="text/css">
	.st0{fill:#6C63AC;}
	.st1{opacity:0.3;fill:#FFFFFF;}
	.st2{fill:#FFFFFF;}
</style>
<g>
	<g>
		<path class="st0" d="M80,100H20C9,100,0,91,0,80V20C0,9,9,0,20,0h60c11,0,20,9,20,20v60C100,91,91,100,80,100z"/>
		<path class="st1" d="M80,100H20C9,100,0,91,0,80V70c0-11,9-20,20-20h80v30C100,91,91,100,80,100z"/>
	</g>
	<path class="st2" d="M61.4,27.7L50,50L38.6,27.7C30.5,31.9,25,40.3,25,50v0c0,13.8,11.2,25,25,25s25-11.2,25-25v0
		C75,40.3,69.5,31.9,61.4,27.7z"/>
</g>
</svg>
